<svg xmlns="http://www.w3.org/2000/svg" version="1.1" xmlns:xlink="http://www.w3.org/1999/xlink" xmlns:svgjs="http://svgjs.dev/svgjs" width="1000" height="376" viewBox="0 0 1000 376"><g transform="matrix(1,0,0,1,-0.6060602046808299,-0.2342756025084327)"><svg viewBox="0 0 396 149" data-background-color="#ffffff" preserveAspectRatio="xMidYMid meet" height="376" width="1000" xmlns="http://www.w3.org/2000/svg" xmlns:xlink="http://www.w3.org/1999/xlink"><g id="tight-bounds" transform="matrix(1,0,0,1,0.24000015894637272,0.0928379382280724)"><svg viewBox="0 0 395.52 148.81432412354386" height="148.81432412354386" width="395.52"><g><svg viewBox="0 0 819.7489362728402 308.4303800122288" height="148.81432412354386" width="395.52"><g transform="matrix(1,0,0,1,0,31.586718390393884)"><svg viewBox="0 0 395.52 245.25694323144103" height="245.25694323144103" width="395.52"><g id="textblocktransform"><svg viewBox="0 0 395.52 245.25694323144103" height="245.25694323144103" width="395.52" id="textblock"><g><svg viewBox="0 0 395.52 245.25694323144103" height="245.25694323144103" width="395.52"><g transform="matrix(1,0,0,1,0,0)"><svg width="395.52" viewBox="5.650000095367432 -35.5 57.25 35.5" height="245.25694323144103" data-palette-color="#464444"><path d="M16.1 0L5.65 0 5.65-35.5 14.4-35.5Q19.55-35.5 23.18-33.88 26.8-32.25 29.05-29.6 31.3-26.95 32.35-23.8 33.4-20.65 33.4-17.55L33.4-17.55Q33.4-13.5 32-10.28 30.6-7.05 28.18-4.75 25.75-2.45 22.65-1.23 19.55 0 16.1 0L16.1 0ZM8.1-33.1L8.1-2.35 15.45-2.35Q18.65-2.35 21.45-3.4 24.25-4.45 26.38-6.45 28.5-8.45 29.7-11.28 30.9-14.1 30.9-17.7L30.9-17.7Q30.9-20.75 29.88-23.53 28.85-26.3 26.8-28.45 24.75-30.6 21.75-31.85 18.75-33.1 14.75-33.1L14.75-33.1 8.1-33.1ZM42.45-35.5L50.3-35.5Q55.45-35.5 58.27-33.38 61.1-31.25 61.1-26.5L61.1-26.5Q61.1-24.15 60.2-22.2 59.3-20.25 57.52-19 55.75-17.75 53.1-17.4L53.1-17.4 52.85-18.6Q55.6-18.4 57.87-17.23 60.15-16.05 61.52-14.08 62.9-12.1 62.9-9.45L62.9-9.45Q62.9-7.05 61.97-5.28 61.05-3.5 59.47-2.33 57.9-1.15 55.9-0.58 53.9 0 51.7 0L51.7 0 42.45 0 42.45-35.5ZM44.9-18.9L51.45-18.9Q55.25-18.9 56.92-20.95 58.6-23 58.6-26.05L58.6-26.05Q58.6-29.85 56.37-31.5 54.15-33.15 50.4-33.15L50.4-33.15 44.9-33.15 44.9-18.9ZM44.9-2.25L51.6-2.25Q54-2.25 56-3.03 58-3.8 59.2-5.4 60.4-7 60.4-9.35L60.4-9.35Q60.4-11.95 59.05-13.53 57.7-15.1 55.65-15.83 53.6-16.55 51.45-16.55L51.45-16.55 44.9-16.55 44.9-2.25Z" opacity="1" transform="matrix(1,0,0,1,0,0)" fill="#464444" class="wordmark-text-0" data-fill-palette-color="primary" id="text-0"></path></svg></g></svg></g></svg></g></svg></g><g transform="matrix(1,0,0,1,511.31855626061133,0)"><svg viewBox="0 0 308.4303800122288 308.4303800122288" height="308.4303800122288" width="308.4303800122288"><g><svg></svg></g><g id="icon-0"><svg viewBox="0 0 308.4303800122288 308.4303800122288" height="308.4303800122288" width="308.4303800122288"><g><path d="M0 154.215c0-85.171 69.044-154.215 154.215-154.215 85.171 0 154.215 69.044 154.215 154.215 0 85.171-69.044 154.215-154.215 154.215-85.171 0-154.215-69.044-154.215-154.215zM154.215 286.313c72.956 0 132.098-59.142 132.098-132.098 0-72.956-59.142-132.098-132.098-132.097-72.956 0-132.098 59.142-132.097 132.097 0 72.956 59.142 132.098 132.097 132.098z" data-fill-palette-color="accent" fill="#434342" stroke="transparent"></path><ellipse rx="152.67303810605324" ry="152.67303810605324" cx="154.2151900061144" cy="154.2151900061144" fill="#434342" stroke="transparent" stroke-width="0" fill-opacity="1" data-fill-palette-color="accent"></ellipse></g><g transform="matrix(1,0,0,1,94.85961091239693,127.16709884118713)"><svg viewBox="0 0 118.71115818743493 54.09618232985454" height="54.09618232985454" width="118.71115818743493"><g><svg xmlns="http://www.w3.org/2000/svg" xmlns:xlink="http://www.w3.org/1999/xlink" version="1.1" x="0" y="0" viewBox="5 29.493873596191406 90 41.01262664794922" enable-background="new 0 0 100 100" xml:space="preserve" height="54.09618232985454" width="118.71115818743493" class="icon-s-0" data-fill-palette-color="quaternary" id="s-0"><g fill="#ffffff" data-fill-palette-color="quaternary"><path d="M23.943 30.807L5 50.001l18.942 19.192c1.728 1.751 4.53 1.751 6.258 0.002 1.729-1.75 1.73-4.587 0.002-6.338L18.193 50.695l-3.624 2.289 15.634-15.841c0.864-0.875 1.295-2.021 1.295-3.168 0-1.147-0.433-2.295-1.297-3.17C28.473 29.056 25.671 29.057 23.943 30.807z" fill="#ffffff" data-fill-palette-color="quaternary"></path><path d="M76.057 30.808L95 50.001 76.058 69.193c-1.728 1.751-4.53 1.751-6.258 0.002-1.729-1.75-1.73-4.587-0.002-6.338l12.009-12.161 3.624 2.289L69.796 37.144c-0.864-0.875-1.295-2.021-1.295-3.168 0-1.147 0.433-2.295 1.297-3.17C71.527 29.056 74.329 29.057 76.057 30.808z" fill="#ffffff" data-fill-palette-color="quaternary"></path><path d="M60.899 32.352c-0.419-1.068-1.241-1.978-2.366-2.476-2.249-0.997-4.857 0.028-5.825 2.288l-13.82 32.062c-0.484 1.13-0.467 2.355-0.048 3.422 0.419 1.068 1.241 1.978 2.366 2.476 2.249 0.997 4.857-0.028 5.825-2.288l13.82-32.062C61.335 34.644 61.318 33.419 60.899 32.352z" fill="#ffffff" data-fill-palette-color="quaternary"></path></g></svg></g></svg></g></svg></g></svg></g></svg></g><defs></defs></svg><rect width="395.52" height="148.81432412354386" fill="none" stroke="none" visibility="hidden"></rect></g></svg></g></svg>